<?xml version="1.0" encoding="UTF-8" standalone="no"?>
<!-- Created with Inkscape (http://www.inkscape.org/) -->

<svg
   version="1.1"
   id="svg1"
   width="1333.3333"
   height="1333.3333"
   viewBox="0 0 1333.3333 1333.3333"
   sodipodi:docname="logo_sem_borda.svg"
   inkscape:version="1.3.1 (91b66b0783, 2023-11-16)"
   xmlns:inkscape="http://www.inkscape.org/namespaces/inkscape"
   xmlns:sodipodi="http://sodipodi.sourceforge.net/DTD/sodipodi-0.dtd"
   xmlns="http://www.w3.org/2000/svg"
   xmlns:svg="http://www.w3.org/2000/svg">
  <defs
     id="defs1" />
  <sodipodi:namedview
     id="namedview1"
     pagecolor="#505050"
     bordercolor="#eeeeee"
     borderopacity="1"
     inkscape:showpageshadow="0"
     inkscape:pageopacity="0"
     inkscape:pagecheckerboard="0"
     inkscape:deskcolor="#505050"
     inkscape:zoom="0.43115839"
     inkscape:cx="-429.07666"
     inkscape:cy="884.82565"
     inkscape:window-width="2560"
     inkscape:window-height="1009"
     inkscape:window-x="-8"
     inkscape:window-y="-8"
     inkscape:window-maximized="1"
     inkscape:current-layer="g1" />
  <g
     inkscape:groupmode="layer"
     inkscape:label="Image"
     id="g1">
    <path
       style="fill:#000000"
       d="m 617.46681,1254.8696 c -36.26919,-1.565 -37.6804,-2.0095 -75.90936,-23.9121 -217.90316,-124.8439 -293.67366,-206.9466 -331.88406,-359.62013 -4.6796,-18.69777 -13.0237,-64.14822 -11.948,-65.08049 0.2245,-0.1945 5.5081,2.6152 11.7414,6.24379 84.9031,49.42429 146.108,57.18235 164.36423,20.83405 11.54265,-22.98157 10.29661,-55.24799 -6.19536,-160.42924 -19.58617,-124.91537 -18.22087,-165.99914 7.7494,-233.19425 25.2857,-65.42371 70.95518,-108.74371 139.94038,-132.74107 14.55768,-5.06407 14.35695,-5.3191 4.69885,5.96971 -61.33369,71.68947 -72.99914,167.03318 -29.50507,241.14991 35.50809,60.50809 116.53931,64.34317 173.07119,8.19118 61.4283,-61.0155 71.58972,-104.84673 36.65511,-158.11168 -27.75947,-42.32499 -45.79165,-118.08412 -45.68326,-191.93044 0.0797,-54.32423 23.76301,-103.4286 62.32298,-129.219086 13.5668,-9.074025 13.53182,-9.150101 4.48666,9.758833 -18.1207,37.881353 -24.3743,63.960503 -24.48936,102.126923 -0.1759,58.34538 10.84675,79.6893 75.39884,145.99999 56.3925,57.92882 67.44146,75.8482 71.93576,116.66666 5.18183,47.06274 -0.68509,90.92046 -17.74705,132.66666 -4.59167,11.23465 -13.89224,30 -14.86873,30 -6.34899,0 -51.03996,6.79032 -70.13456,10.6562 -78.01497,15.79487 -123.41119,38.14001 -178.55306,87.88818 -16.75895,15.11967 -57.69,60.94638 -50.73907,56.80783 1.07735,-0.64145 7.95881,-5.15834 15.29214,-10.03753 96.10463,-63.94271 201.02345,-100.20926 273.67409,-94.59902 34.10187,2.63343 144.43894,30.05889 219.7644,54.62479 19.8578,6.47624 42.9578,13.38461 51.3333,15.35194 51.8326,12.17502 69.3872,24.94339 61.262,44.55926 -1.5111,3.64817 -1.5129,5.46006 -0.011,11.21635 7.31,28.01779 -3.801,72.35308 -28.7333,114.6516 -6.9993,11.87472 -7.849,12.195 -5.9625,2.24753 1.803,-9.50751 1.7026,-43.11544 -0.1565,-52.37277 -7.7084,-38.38287 -37.3224,-41.91171 -88.8729,-10.5902 -28.21235,17.14156 -89.52692,38.59355 -130.29751,45.58693 -8.8,1.50946 -17.443,3.06374 -19.20667,3.45396 -2.90466,0.64266 -1.0726,2.86836 19.45253,23.6322 48.6815,49.24766 82.39134,94.94613 106.4623,144.32493 12.5781,25.8025 26.32085,39.3548 38.14765,37.619 4.613,-0.677 4.5956,-0.9708 0.4337,7.3153 -20.7807,41.3735 -49.74115,30.3119 -112.5862,-43.0031 C 822.43302,964.88495 787.08126,942.47317 708.80013,940.6427 c -36.78779,-0.86022 -47.17533,0.6408 -65.05439,9.40049 -69.95255,34.27264 -83.16643,82.23821 -35.03781,127.18501 25.514,23.8273 44.29046,34.2271 189.42553,104.9177 19.06667,9.2868 42.46169,21.1744 51.98894,26.4171 l 17.32228,9.532 -19.32228,6.3271 c -61.4326,20.1159 -149.91758,33.8185 -203.98893,31.5892 -2.56667,-0.1058 -14.56667,-0.6196 -26.66666,-1.1417 z M 969.46675,769.54277 c 0,-1.99843 -10.92695,-8.59083 -20.77214,-12.53213 -29.42578,-11.77995 -69.39165,-13.15207 -89.22782,-3.06341 -6.53856,3.32551 -7.17685,3.1516 17.98098,4.89919 19.44882,1.35101 38.15129,3.83394 70.68568,9.38417 16.70198,2.8493 21.3333,3.13416 21.3333,1.31218 z"
       id="path1" />
  </g>
</svg>
